<svg width="136" height="18" viewBox="0 0 136 18" fill="none" xmlns="http://www.w3.org/2000/svg">
<path d="M2.70312 1.20312C2.6875 2.07812 2.67188 2.92578 2.65625 3.74609C2.64844 4.09766 2.64062 4.45703 2.63281 4.82422C2.63281 5.19141 2.62891 5.55469 2.62109 5.91406C2.62109 6.26562 2.61719 6.60547 2.60938 6.93359C2.60938 7.25391 2.60938 7.53906 2.60938 7.78906C2.60938 8.3125 2.61328 8.94531 2.62109 9.6875C2.62891 10.4297 2.63672 11.1914 2.64453 11.9727C2.66016 12.7539 2.67969 13.5039 2.70312 14.2227C2.72656 14.9414 2.75391 15.5391 2.78516 16.0156C2.89453 16.0312 3.03906 16.0508 3.21875 16.0742C3.40625 16.0898 3.60156 16.1055 3.80469 16.1211C4.00781 16.1289 4.20703 16.1367 4.40234 16.1445C4.59766 16.1523 4.76172 16.1562 4.89453 16.1562C5.44141 16.1562 6 16.1211 6.57031 16.0508C7.14844 15.9727 7.70312 15.832 8.23438 15.6289C8.77344 15.4258 9.27734 15.1484 9.74609 14.7969C10.2227 14.4375 10.6367 13.9766 10.9883 13.4141C11.3477 12.8516 11.6289 12.1758 11.832 11.3867C12.0352 10.5898 12.1367 9.65234 12.1367 8.57422C12.1367 7.37891 11.9922 6.31641 11.7031 5.38672C11.4141 4.44922 10.9883 3.66016 10.4258 3.01953C9.87109 2.37891 9.17969 1.89453 8.35156 1.56641C7.53125 1.23047 6.58594 1.0625 5.51562 1.0625C5.30469 1.0625 5.06641 1.07031 4.80078 1.08594C4.53516 1.09375 4.26953 1.10547 4.00391 1.12109C3.74609 1.12891 3.5 1.14453 3.26562 1.16797C3.03906 1.18359 2.85156 1.19531 2.70312 1.20312ZM0.136719 0.148438C0.316406 0.15625 0.484375 0.164062 0.640625 0.171875C0.773438 0.179688 0.910156 0.1875 1.05078 0.195312C1.19141 0.195312 1.30469 0.195312 1.39062 0.195312C1.53906 0.195312 1.78516 0.1875 2.12891 0.171875C2.48047 0.15625 2.87891 0.140625 3.32422 0.125C3.76953 0.109375 4.23047 0.09375 4.70703 0.078125C5.19141 0.0625 5.64453 0.0546875 6.06641 0.0546875C7.19922 0.0546875 8.27734 0.195312 9.30078 0.476562C10.3242 0.757812 11.2227 1.21875 11.9961 1.85938C12.7695 2.5 13.3828 3.33984 13.8359 4.37891C14.2891 5.41797 14.5156 6.69531 14.5156 8.21094C14.5156 9.29688 14.3945 10.2734 14.1523 11.1406C13.918 12.0078 13.5859 12.7734 13.1562 13.4375C12.7266 14.1016 12.2109 14.6719 11.6094 15.1484C11.0156 15.6172 10.3555 16.0039 9.62891 16.3086C8.91016 16.6133 8.14062 16.8359 7.32031 16.9766C6.5 17.1172 5.65234 17.1875 4.77734 17.1875C4.46484 17.1875 4.08594 17.1758 3.64062 17.1523C3.20312 17.1367 2.76172 17.1172 2.31641 17.0938C1.87109 17.0703 1.44922 17.0469 1.05078 17.0234C0.660156 17.0078 0.355469 17 0.136719 17V16.9531C0.183594 16.7891 0.226562 16.5859 0.265625 16.3438C0.3125 16.1016 0.351562 15.8008 0.382812 15.4414C0.414062 15.082 0.4375 14.6562 0.453125 14.1641C0.46875 13.6641 0.476562 13.082 0.476562 12.418V4.78906C0.476562 4.125 0.46875 3.54297 0.453125 3.04297C0.4375 2.53516 0.414062 2.10156 0.382812 1.74219C0.351562 1.375 0.3125 1.06641 0.265625 0.816406C0.226562 0.566406 0.183594 0.359375 0.136719 0.195312V0.148438ZM17.5625 9.21875C17.5625 8.51562 17.5547 7.90625 17.5391 7.39062C17.5234 6.86719 17.5 6.41797 17.4688 6.04297C17.4453 5.66016 17.4102 5.33984 17.3633 5.08203C17.3242 4.82422 17.2773 4.61328 17.2227 4.44922V4.40234H19.9414V4.44922C19.8867 4.61328 19.8359 4.82422 19.7891 5.08203C19.75 5.33984 19.7148 5.66016 19.6836 6.04297C19.6602 6.41797 19.6406 6.86719 19.625 7.39062C19.6094 7.90625 19.6016 8.51562 19.6016 9.21875V12.1719C19.6016 12.875 19.6094 13.4883 19.625 14.0117C19.6406 14.5352 19.6602 14.9883 19.6836 15.3711C19.7148 15.7461 19.75 16.0625 19.7891 16.3203C19.8359 16.5781 19.8867 16.7891 19.9414 16.9531V17H17.2227V16.9531C17.2773 16.7891 17.3242 16.5781 17.3633 16.3203C17.4102 16.0625 17.4453 15.7461 17.4688 15.3711C17.5 14.9883 17.5234 14.5352 17.5391 14.0117C17.5547 13.4883 17.5625 12.875 17.5625 12.1719V9.21875ZM33.7812 14.3867L32.8672 16.5664C32.6406 16.668 32.3828 16.7617 32.0938 16.8477C31.8125 16.9258 31.5195 16.9922 31.2148 17.0469C30.9102 17.1016 30.5977 17.1406 30.2773 17.1641C29.9648 17.1953 29.668 17.2109 29.3867 17.2109C28.4023 17.2109 27.4883 17.0664 26.6445 16.7773C25.8086 16.4883 25.0859 16.0664 24.4766 15.5117C23.8672 14.9492 23.3906 14.2617 23.0469 13.4492C22.7031 12.6367 22.5312 11.707 22.5312 10.6602C22.5312 9.73828 22.7109 8.88281 23.0703 8.09375C23.4297 7.30469 23.9258 6.62109 24.5586 6.04297C25.1914 5.45703 25.9375 5 26.7969 4.67188C27.6641 4.34375 28.6016 4.17969 29.6094 4.17969C29.8359 4.17969 30.0742 4.19141 30.3242 4.21484C30.582 4.23047 30.8359 4.25781 31.0859 4.29688C31.3359 4.33594 31.5781 4.38281 31.8125 4.4375C32.0469 4.48438 32.2656 4.53516 32.4688 4.58984L33.3477 6.69922L33.207 6.78125C32.9961 6.52344 32.7422 6.28516 32.4453 6.06641C32.1562 5.84766 31.8359 5.66406 31.4844 5.51562C31.1406 5.35938 30.7773 5.23828 30.3945 5.15234C30.0117 5.06641 29.6211 5.02344 29.2227 5.02344C28.5742 5.02344 27.9805 5.13672 27.4414 5.36328C26.9102 5.58984 26.4531 5.92188 26.0703 6.35938C25.6953 6.78906 25.4023 7.31641 25.1914 7.94141C24.9805 8.56641 24.875 9.27344 24.875 10.0625C24.875 10.9531 24.9766 11.7852 25.1797 12.5586C25.3828 13.3242 25.6875 13.9922 26.0938 14.5625C26.5 15.125 27.0078 15.5703 27.6172 15.8984C28.2266 16.2188 28.9375 16.3789 29.75 16.3789C30.1406 16.3789 30.5234 16.332 30.8984 16.2383C31.2812 16.1367 31.6406 15.9961 31.9766 15.8164C32.3203 15.6367 32.6328 15.4219 32.9141 15.1719C33.1953 14.9141 33.4375 14.6289 33.6406 14.3164L33.7812 14.3867ZM38.9141 5.26953C38.2031 5.26953 37.5547 5.30078 36.9688 5.36328C36.3906 5.42578 35.8906 5.49219 35.4688 5.5625C34.9844 5.64844 34.5469 5.74219 34.1562 5.84375L34.3906 4.33203C34.5078 4.34766 34.6992 4.35938 34.9648 4.36719C35.2305 4.375 35.5078 4.38281 35.7969 4.39062C36.0938 4.39062 36.3711 4.39453 36.6289 4.40234C36.8945 4.40234 37.0781 4.40234 37.1797 4.40234H42.7227C42.8164 4.40234 42.9883 4.40234 43.2383 4.40234C43.4961 4.39453 43.7695 4.39062 44.0586 4.39062C44.3477 4.38281 44.625 4.375 44.8906 4.36719C45.1562 4.35938 45.3477 4.34766 45.4648 4.33203L45.6992 5.84375C45.3242 5.74219 44.8945 5.64844 44.4102 5.5625C43.9961 5.49219 43.4961 5.42578 42.9102 5.36328C42.332 5.30078 41.6797 5.26953 40.9531 5.26953V12.1719C40.9531 12.875 40.9609 13.4883 40.9766 14.0117C40.9922 14.5352 41.0117 14.9883 41.0352 15.3711C41.0664 15.7461 41.1016 16.0625 41.1406 16.3203C41.1797 16.5781 41.2266 16.7891 41.2812 16.9531V17H38.5742V16.9531C38.6289 16.7891 38.6758 16.5781 38.7148 16.3203C38.7539 16.0625 38.7891 15.7461 38.8203 15.3711C38.8516 14.9883 38.875 14.5352 38.8906 14.0117C38.9062 13.4883 38.9141 12.875 38.9141 12.1719V5.26953ZM47.6797 9.21875C47.6797 8.51562 47.6719 7.90625 47.6562 7.39062C47.6406 6.86719 47.6172 6.41797 47.5859 6.04297C47.5625 5.66016 47.5273 5.33984 47.4805 5.08203C47.4414 4.82422 47.3945 4.61328 47.3398 4.44922V4.40234H50.0586V4.44922C50.0039 4.61328 49.9531 4.82422 49.9062 5.08203C49.8672 5.33984 49.832 5.66016 49.8008 6.04297C49.7773 6.41797 49.7578 6.86719 49.7422 7.39062C49.7266 7.90625 49.7188 8.51562 49.7188 9.21875V12.1719C49.7188 12.875 49.7266 13.4883 49.7422 14.0117C49.7578 14.5352 49.7773 14.9883 49.8008 15.3711C49.832 15.7461 49.8672 16.0625 49.9062 16.3203C49.9531 16.5781 50.0039 16.7891 50.0586 16.9531V17H47.3398V16.9531C47.3945 16.7891 47.4414 16.5781 47.4805 16.3203C47.5273 16.0625 47.5625 15.7461 47.5859 15.3711C47.6172 14.9883 47.6406 14.5352 47.6562 14.0117C47.6719 13.4883 47.6797 12.875 47.6797 12.1719V9.21875ZM52.6484 10.6602C52.6484 9.73828 52.8203 8.88281 53.1641 8.09375C53.5156 7.30469 53.9922 6.62109 54.5938 6.04297C55.1953 5.45703 55.9062 5 56.7266 4.67188C57.5469 4.34375 58.4258 4.17969 59.3633 4.17969C60.2852 4.17969 61.1523 4.33594 61.9648 4.64844C62.7852 4.95312 63.4961 5.39062 64.0977 5.96094C64.707 6.53125 65.1875 7.22266 65.5391 8.03516C65.8906 8.84766 66.0664 9.75781 66.0664 10.7656C66.0664 11.6016 65.918 12.4102 65.6211 13.1914C65.3242 13.9648 64.8906 14.6523 64.3203 15.2539C63.75 15.8477 63.0469 16.3242 62.2109 16.6836C61.375 17.0352 60.418 17.2109 59.3398 17.2109C58.4258 17.2109 57.5625 17.0586 56.75 16.7539C55.9375 16.4492 55.2266 16.0156 54.6172 15.4531C54.0078 14.8828 53.5273 14.1953 53.1758 13.3906C52.8242 12.5781 52.6484 11.668 52.6484 10.6602ZM59.6328 16.3789C60.2266 16.3789 60.7734 16.2617 61.2734 16.0273C61.7734 15.793 62.2031 15.457 62.5625 15.0195C62.9297 14.582 63.2109 14.0508 63.4062 13.4258C63.6094 12.793 63.7109 12.082 63.7109 11.293C63.7109 10.3945 63.6133 9.5625 63.418 8.79688C63.2305 8.03125 62.9414 7.37109 62.5508 6.81641C62.168 6.25391 61.6875 5.81641 61.1094 5.50391C60.5312 5.18359 59.8555 5.02344 59.082 5.02344C58.4883 5.02344 57.9414 5.13672 57.4414 5.36328C56.9414 5.58984 56.5078 5.91797 56.1406 6.34766C55.7812 6.77734 55.5 7.30469 55.2969 7.92969C55.0938 8.55469 54.9922 9.26562 54.9922 10.0625C54.9922 10.9531 55.0898 11.7852 55.2852 12.5586C55.4883 13.3242 55.7812 13.9922 56.1641 14.5625C56.5547 15.125 57.0391 15.5703 57.6172 15.8984C58.1953 16.2188 58.8672 16.3789 59.6328 16.3789ZM79.7188 17.1641H79.2617L69.9453 8V12.1719C69.9453 12.875 69.9492 13.4883 69.957 14.0117C69.9648 14.5352 69.9766 14.9883 69.9922 15.3711C70.0156 15.7461 70.043 16.0625 70.0742 16.3203C70.1133 16.5781 70.1602 16.7891 70.2148 16.9531V17H68.457V16.9531C68.5117 16.7891 68.5586 16.5781 68.5977 16.3203C68.6367 16.0625 68.668 15.7461 68.6914 15.3711C68.7148 14.9883 68.7305 14.5352 68.7383 14.0117C68.7461 13.4883 68.75 12.875 68.75 12.1719V9.21875C68.75 8.51562 68.7461 7.90625 68.7383 7.39062C68.7305 6.86719 68.7148 6.41797 68.6914 6.04297C68.668 5.66016 68.6367 5.33984 68.5977 5.08203C68.5586 4.82422 68.5117 4.61328 68.457 4.44922V4.40234H69.1836L78.5117 13.6133V9.21875C78.5117 8.51562 78.5078 7.90625 78.5 7.39062C78.4922 6.86719 78.4766 6.41797 78.4531 6.04297C78.4375 5.66016 78.4141 5.33984 78.3828 5.08203C78.3516 4.82422 78.3086 4.61328 78.2539 4.44922V4.40234H80V4.44922C79.9453 4.61328 79.8984 4.82422 79.8594 5.08203C79.8281 5.33984 79.8008 5.66016 79.7773 6.04297C79.7539 6.41797 79.7383 6.86719 79.7305 7.39062C79.7227 7.90625 79.7188 8.51562 79.7188 9.21875V17.1641ZM90.7344 13.0391C90.5234 13.0391 90.2578 13.0391 89.9375 13.0391C89.625 13.0391 89.2812 13.0391 88.9062 13.0391C88.5312 13.0391 88.1445 13.0391 87.7461 13.0391C87.3477 13.0391 86.9688 13.043 86.6094 13.0508C86.25 13.0508 85.9219 13.0547 85.625 13.0625C85.3281 13.0625 85.0977 13.0625 84.9336 13.0625L84.5 13.9766C84.3125 14.3516 84.1523 14.6797 84.0195 14.9609C83.8867 15.2344 83.7773 15.4766 83.6914 15.6875C83.6055 15.8984 83.543 16.082 83.5039 16.2383C83.4648 16.3867 83.4453 16.5273 83.4453 16.6602C83.4453 16.7461 83.4492 16.8125 83.457 16.8594C83.4648 16.8984 83.4766 16.9297 83.4922 16.9531V17H81.4297V16.9531C81.4844 16.8984 81.5703 16.7812 81.6875 16.6016C81.8047 16.4141 81.9375 16.1875 82.0859 15.9219C82.2422 15.6562 82.4062 15.3555 82.5781 15.0195C82.7578 14.6836 82.9336 14.3359 83.1055 13.9766L87.8867 4.10938H88.7656L93.4531 13.9766C93.6328 14.3516 93.8125 14.7109 93.9922 15.0547C94.1797 15.3984 94.3516 15.707 94.5078 15.9805C94.6641 16.2461 94.8008 16.4688 94.918 16.6484C95.0352 16.8203 95.1133 16.9219 95.1523 16.9531V17H92.1523C92.168 16.9375 92.1758 16.8828 92.1758 16.8359C92.1758 16.7812 92.1758 16.7227 92.1758 16.6602C92.1758 16.4883 92.1367 16.2812 92.0586 16.0391C91.9883 15.7969 91.8984 15.5508 91.7891 15.3008C91.6875 15.043 91.5781 14.7969 91.4609 14.5625C91.3516 14.3281 91.2617 14.1328 91.1914 13.9766L90.7344 13.0391ZM85.3906 12.125H86.1055C86.4336 12.125 86.7812 12.125 87.1484 12.125C87.5234 12.1172 87.8984 12.1133 88.2734 12.1133C88.6484 12.1133 89.0117 12.1133 89.3633 12.1133C89.7148 12.1055 90.0312 12.1016 90.3125 12.1016L87.8867 6.92188L85.3906 12.125ZM98.9609 10.8828C99.1172 10.9062 99.2734 10.9258 99.4297 10.9414C99.5938 10.9492 99.75 10.9531 99.8984 10.9531C100.875 10.9531 101.613 10.6914 102.113 10.168C102.621 9.64453 102.875 8.85938 102.875 7.8125C102.875 6.95312 102.672 6.27344 102.266 5.77344C101.867 5.27344 101.277 5.02344 100.496 5.02344C100.246 5.02344 100.023 5.03516 99.8281 5.05859C99.6406 5.07422 99.4805 5.09375 99.3477 5.11719C99.1992 5.14844 99.0703 5.17969 98.9609 5.21094V10.8828ZM100.754 11.6445C100.598 11.668 100.441 11.6836 100.285 11.6914C100.137 11.6914 99.9844 11.6914 99.8281 11.6914C99.7031 11.6914 99.5664 11.6875 99.418 11.6797C99.2695 11.6719 99.1172 11.6602 98.9609 11.6445V12.2188C98.9609 12.9141 98.9688 13.5234 98.9844 14.0469C99 14.5625 99.0195 15.0078 99.043 15.3828C99.0742 15.7578 99.1094 16.0742 99.1484 16.332C99.1875 16.582 99.2344 16.7891 99.2891 16.9531V17H96.582V16.9531C96.6367 16.7891 96.6836 16.5781 96.7227 16.3203C96.7695 16.0625 96.8047 15.7461 96.8281 15.3711C96.8594 14.9883 96.8828 14.5352 96.8984 14.0117C96.9141 13.4883 96.9219 12.875 96.9219 12.1719V9.21875C96.9219 8.51562 96.9141 7.90625 96.8984 7.39062C96.8828 6.86719 96.8594 6.41797 96.8281 6.04297C96.8047 5.66016 96.7695 5.33984 96.7227 5.08203C96.6836 4.82422 96.6367 4.61328 96.582 4.44922V4.40234C96.707 4.41016 96.8398 4.41797 96.9805 4.42578C97.0977 4.43359 97.2266 4.44141 97.3672 4.44922C97.5156 4.44922 97.6641 4.44922 97.8125 4.44922C98.0625 4.44922 98.4336 4.42578 98.9258 4.37891C99.418 4.33203 99.9961 4.30859 100.66 4.30859C101.332 4.30859 101.941 4.39062 102.488 4.55469C103.043 4.71875 103.516 4.95312 103.906 5.25781C104.305 5.5625 104.609 5.93359 104.82 6.37109C105.039 6.80859 105.148 7.29688 105.148 7.83594C105.148 8.25781 105.09 8.64453 104.973 8.99609C104.855 9.33984 104.691 9.65234 104.48 9.93359C104.27 10.207 104.02 10.4492 103.73 10.6602C103.441 10.8711 103.121 11.0547 102.77 11.2109L105.219 14.668C105.43 14.9492 105.641 15.2188 105.852 15.4766C106.07 15.7344 106.277 15.9648 106.473 16.168C106.668 16.3711 106.852 16.543 107.023 16.6836C107.195 16.8164 107.34 16.9062 107.457 16.9531V17H104.387C104.387 16.9297 104.336 16.8086 104.234 16.6367C104.141 16.457 104.027 16.2734 103.895 16.0859C103.77 15.8906 103.641 15.7031 103.508 15.5234C103.383 15.3438 103.289 15.2109 103.227 15.125L100.754 11.6445ZM108.992 9.21875C108.992 8.51562 108.984 7.90625 108.969 7.39062C108.953 6.86719 108.93 6.41797 108.898 6.04297C108.875 5.66016 108.84 5.33984 108.793 5.08203C108.754 4.82422 108.707 4.61328 108.652 4.44922V4.40234H111.371V4.44922C111.316 4.61328 111.266 4.82422 111.219 5.08203C111.18 5.33984 111.145 5.66016 111.113 6.04297C111.09 6.41797 111.07 6.86719 111.055 7.39062C111.039 7.90625 111.031 8.51562 111.031 9.21875V12.1719C111.031 12.875 111.039 13.4883 111.055 14.0117C111.07 14.5352 111.09 14.9883 111.113 15.3711C111.145 15.7461 111.18 16.0625 111.219 16.3203C111.266 16.5781 111.316 16.7891 111.371 16.9531V17H108.652V16.9531C108.707 16.7891 108.754 16.5781 108.793 16.3203C108.84 16.0625 108.875 15.7461 108.898 15.3711C108.93 14.9883 108.953 14.5352 108.969 14.0117C108.984 13.4883 108.992 12.875 108.992 12.1719V9.21875ZM117.008 12.1719C117.008 12.875 117.016 13.4883 117.031 14.0117C117.047 14.5352 117.066 14.9883 117.09 15.3711C117.121 15.7461 117.156 16.0625 117.195 16.3203C117.234 16.5781 117.281 16.7891 117.336 16.9531V17H114.629V16.9531C114.684 16.7891 114.73 16.5781 114.77 16.3203C114.816 16.0625 114.852 15.7461 114.875 15.3711C114.906 14.9883 114.93 14.5352 114.945 14.0117C114.961 13.4883 114.969 12.875 114.969 12.1719V9.21875C114.969 8.51562 114.961 7.90625 114.945 7.39062C114.93 6.86719 114.906 6.41797 114.875 6.04297C114.852 5.66016 114.816 5.33984 114.77 5.08203C114.73 4.82422 114.684 4.61328 114.629 4.44922V4.40234C115.137 4.40234 115.66 4.40234 116.199 4.40234C116.746 4.40234 117.281 4.40234 117.805 4.40234C118.336 4.39453 118.84 4.38672 119.316 4.37891C119.801 4.37109 120.234 4.36328 120.617 4.35547C121.008 4.33984 121.34 4.32812 121.613 4.32031C121.887 4.30469 122.078 4.28516 122.188 4.26172L121.707 5.52734C121.504 5.47266 121.27 5.42188 121.004 5.375C120.777 5.33594 120.492 5.30078 120.148 5.26953C119.812 5.23047 119.43 5.21094 119 5.21094C118.844 5.21094 118.652 5.21875 118.426 5.23438C118.207 5.24219 117.992 5.25391 117.781 5.26953C117.531 5.28516 117.273 5.30078 117.008 5.31641V9.58203C117.641 9.57422 118.219 9.55859 118.742 9.53516C119.266 9.50391 119.719 9.47266 120.102 9.44141C120.547 9.41016 120.945 9.37109 121.297 9.32422L121.039 10.7305C120.578 10.6758 120.113 10.625 119.645 10.5781C119.246 10.5391 118.809 10.5039 118.332 10.4727C117.863 10.4414 117.422 10.4258 117.008 10.4258V12.1719ZM129.734 12.1719C129.734 12.875 129.742 13.4883 129.758 14.0117C129.773 14.5352 129.793 14.9883 129.816 15.3711C129.848 15.7461 129.883 16.0625 129.922 16.3203C129.969 16.5781 130.02 16.7891 130.074 16.9531V17H127.355V16.9531C127.41 16.7891 127.457 16.5781 127.496 16.3203C127.543 16.0625 127.578 15.7461 127.602 15.3711C127.633 14.9883 127.656 14.5352 127.672 14.0117C127.688 13.4883 127.695 12.875 127.695 12.1719V11.3633L123.477 5.79688C123.195 5.42188 122.926 5.12109 122.668 4.89453C122.41 4.66016 122.215 4.51172 122.082 4.44922V4.40234H125.41C125.41 4.54297 125.461 4.76172 125.562 5.05859C125.664 5.34766 125.871 5.70312 126.184 6.125L129.16 10.0625L132.207 5.96094C132.426 5.66406 132.59 5.37109 132.699 5.08203C132.816 4.79297 132.875 4.56641 132.875 4.40234H135.02V4.44922C134.824 4.58203 134.621 4.75 134.41 4.95312C134.207 5.15625 133.969 5.44531 133.695 5.82031L129.734 11.1875V12.1719Z" fill="black"/>
</svg>
